<?xml version="1.0" encoding="utf-8"?>
<!DOCTYPE svg PUBLIC "-//W3C//DTD SVG 1.1//EN" "http://www.w3.org/Graphics/SVG/1.1/DTD/svg11.dtd">
<svg version="1.1" id="图形" xmlns="http://www.w3.org/2000/svg" xmlns:xlink="http://www.w3.org/1999/xlink" x="0px" y="0px" width="1024px" height="1024px" viewBox="0 0 1024 1024" enable-background="new 0 0 1024 1024" xml:space="preserve">
  <path fill="#eb4f38" d="M510.24-40.832c0 0-371.488 201.136-371.488 474.88 0 104.864 104.416 189.904 207.76 189.904 78.448 0 138.816-49.072 163.36-118.576 0.08-0.032 0.352-0.112 0.352-0.112s0.272 0.08 0.352 0.112c24.56 69.504 84.912 118.576 163.376 118.576 103.328 0 207.744-85.04 207.744-189.904C881.712 160.32 510.24-40.832 510.24-40.832zM512-99.264c0 0-446.208 241.616-446.208 570.4 0 125.968 125.424 228.128 249.552 228.128 94.24 0 166.736-58.96 196.24-142.432C511.664 556.784 512 556.688 512 556.688s0.336 0.096 0.432 0.144c29.52 83.488 101.968 142.432 196.24 142.432 124.128 0 249.536-102.16 249.536-228.128C958.208 142.336 512-99.264 512-99.264z" transform="translate(0, 812) scale(1, -1)"/>
</svg>
