<?xml version="1.0" encoding="utf-8"?>
<!DOCTYPE svg PUBLIC "-//W3C//DTD SVG 1.1//EN" "http://www.w3.org/Graphics/SVG/1.1/DTD/svg11.dtd">
<svg version="1.1" id="图形" xmlns="http://www.w3.org/2000/svg" xmlns:xlink="http://www.w3.org/1999/xlink" x="0px" y="0px" width="1024px" height="1024px" viewBox="0 0 1024 1024" enable-background="new 0 0 1024 1024" xml:space="preserve">
  <path fill="#fff" d="M25.683968 370.975488c0-101.4272 87.51104-153.66144 183.289856-172.898304-17.569792-4.790272-24.541184-21.583872-90.554368-15.593472 26.646528-83.161088 101.967872-111.693824 193.5872-113.379328-71.655424-56.141824-163.934208-73.777152-262.03136-73.777152-16.900096 0-33.564672 0.999424-49.944576 2.945024 92.653568-59.400192 202.713088-117.919744 320.950272-117.919744 385.110016 0 572.073984 285.964288 572.073984 562.618368 0 9.076736-0.2048 18.100224-0.606208 27.078656 40.9088 29.519872 103.448576 70.393856 131.518464 112.37376-37.55008-16.652288-81.309696-0.858112-123.65824-5.914624 43.220992 25.894912 95.168512 58.626048 102.279168 134.791168-40.454144-23.990272-95.488-56.383488-143.179776-65.769472-38.187008 40.679424-92.606464 74.113024-152.825856 74.113024-115.625984 0-192.331776-107.370496-192.331776-222.990336 0-16.40448-0.151552-26.386432 3.42016-41.713664-174.010368 8.732672-358.66624 65.78176-461.928448 192.448512-18.024448-30.916608-28.348416-66.88768-28.348416-105.254912 0-72.634368 55.709696-136.718336 111.890432-174.258176C104.962048 368.9664 111.699968 346.985216 25.683968 370.975488z" transform="translate(0, 812) scale(1, -1)"/>
</svg>
